<?xml version="1.0" encoding="UTF-8" standalone="no"?>
<svg
   width="16"
   height="16"
   fill="currentColor"
   class="bi bi-layout-sidebar-inset-reverse"
   viewBox="0 0 16 16"
   version="1.1"
   id="svg6"
   sodipodi:docname="layout-bottombar.svg"
   inkscape:version="1.2.1 (9c6d41e410, 2022-07-14)"
   xmlns:inkscape="http://www.inkscape.org/namespaces/inkscape"
   xmlns:sodipodi="http://sodipodi.sourceforge.net/DTD/sodipodi-0.dtd"
   xmlns="http://www.w3.org/2000/svg"
   xmlns:svg="http://www.w3.org/2000/svg">
  <defs
     id="defs10" />
  <sodipodi:namedview
     id="namedview8"
     pagecolor="#ffffff"
     bordercolor="#666666"
     borderopacity="1.0"
     inkscape:showpageshadow="2"
     inkscape:pageopacity="0.0"
     inkscape:pagecheckerboard="0"
     inkscape:deskcolor="#d1d1d1"
     showgrid="false"
     inkscape:zoom="68.5"
     inkscape:cx="8"
     inkscape:cy="8"
     inkscape:current-layer="svg6" />
  <path
     d="M2 2a1 1 0 0 0-1 1v10a1 1 0 0 0 1 1h12a1 1 0 0 0 1-1V3a1 1 0 0 0-1-1H2zm12-1a2 2 0 0 1 2 2v10a2 2 0 0 1-2 2H2a2 2 0 0 1-2-2V3a2 2 0 0 1 2-2h12z"
     id="path2" />
  <path
     d="m 3.0000002,9.0189759 c -0.5522848,0 -1.0000001,0.4477153 -1,1.0000001 v 2 c 0,0.552285 0.4477153,1 1,1 H 13 c 0.552285,0 1,-0.447715 1,-1 v -2 C 14,9.4666912 13.552285,9.0189759 13,9.0189759 Z"
     id="path4-3"
     sodipodi:nodetypes="sssssssss" />
</svg>
