<svg xmlns="http://www.w3.org/2000/svg" height="24" width="24">
  <path d="m 1,9 2,2 C 5.88,8.12 9.79,6.92 13.53,7.38 L 14.72,4.7 C 9.89,3.84 4.74,5.27 1,9 Z m 20,2 2,-2 C 21.418759,7.4172667 19.510994,6.1988903 17.41,5.43 l -0.53,2.82 c 1.5,0.62 2.9,1.53 4.12,2.75 z m -4,4 2,-2 c -0.8,-0.8 -1.7,-1.42 -2.66,-1.89 l -0.55,2.92 C 16.21,14.3 16.62,14.62 17,15 Z M 5,13 7,15 c 1.0910109,-1.085902 2.5053795,-1.787822 4.03,-2 l 1.28,-2.88 C 9.68,10.04 7.01,10.99 5,13 Z" style="opacity:0.66" />
  <path d="m 15.9,5 c -0.17,0 -0.32,0.09 -0.41,0.23 l -0.07,0.15 -5.18,11.65 c -0.16,0.29 -0.26,0.61 -0.26,0.96 0,1.11 0.9,2.01 2.01,2.01 0.96,0 1.77,-0.68 1.96,-1.59 L 13.96,18.38 16.4,5.5 C 16.4,5.22 16.18,5 15.9,5 Z" />
</svg>
