<svg xmlns="http://www.w3.org/2000/svg" height="24" width="24">
  <path d="m 12,11 c -1.1,0 -2,0.9 -2,2 0,0.55 0.23,1.05 0.59,1.41 0.36,0.36 0.86,0.59 1.41,0.59 0.55,0 1.05,-0.23 1.41,-0.59 C 13.77,14.05 14,13.55 14,13 14,11.9 13.1,11 12,11 Z m 8,-1 h 2 v 6 h -2 z m 0,8 h 2 v 2 h -2 z" />
  <path d="m 12,7 c -3.31,0 -6,2.69 -6,6 0,1.66 0.68,3.15 1.76,4.24 L 9.18,15.82 C 8.4226014,15.077503 7.9971034,14.060635 8,13 8,10.79 9.79,9 12,9 c 2.21,0 4,1.79 4,4 0,1.11 -0.45,2.1 -1.18,2.82 l 1.42,1.42 C 17.365261,16.115675 17.99827,14.590697 18,13 18,9.69 15.31,7 12,7 Z" style="opacity:0.8" />
  <path d="M 12,3 C 6.48,3 2,7.48 2,13 c 0,2.76 1.12,5.26 2.93,7.07 L 6.35,18.65 C 4.8432528,17.156284 3.9969959,15.121666 4,13 4,8.58 7.58,5 12,5 c 2.53,0 4.78,1.17 6.24,3 h 2.42 C 18.93,5.01 15.7,3 12,3 Z" style="opacity:0.66" />
</svg>
